<?xml version="1.0" standalone="no"?>
<!DOCTYPE svg PUBLIC "-//W3C//DTD SVG 20010904//EN"
 "http://www.w3.org/TR/2001/REC-SVG-20010904/DTD/svg10.dtd">
<svg version="1.0" xmlns="http://www.w3.org/2000/svg"
 width="216.000000pt" height="218.000000pt" viewBox="0 0 216.000000 218.000000"
 preserveAspectRatio="xMidYMid meet">
<metadata>
Created by potrace 1.15, written by Peter Selinger 2001-2017
</metadata>
<g transform="translate(0.000000,218.000000) scale(0.100000,-0.100000)"
fill="#000000" stroke="none">
<path d="M1545 1980 c-157 -157 -203 -198 -220 -194 -28 7 -135 -66 -187 -128
-24 -28 -56 -62 -72 -77 -45 -41 -149 -144 -167 -166 -9 -11 -42 -39 -72 -62
-31 -24 -71 -65 -89 -93 -18 -27 -39 -50 -46 -50 -20 0 -136 -115 -158 -155
-11 -20 -26 -35 -37 -35 -27 0 -115 -87 -149 -147 -25 -44 -33 -52 -52 -47
-29 7 -118 -86 -152 -159 -53 -116 -41 -202 37 -281 l49 -49 -32 -35 c-41 -47
-80 -134 -76 -169 4 -37 44 -45 57 -11 32 82 47 110 72 134 l29 28 38 -36 c55
-53 92 -68 165 -68 51 0 76 6 126 31 82 41 164 120 156 151 -4 19 1 26 36 42
51 23 159 129 159 155 0 12 16 29 44 45 47 27 146 131 146 153 0 7 12 19 28
27 41 23 86 65 127 121 20 28 58 66 83 85 26 19 69 63 97 97 27 34 68 75 91
92 71 50 165 185 148 212 -4 7 82 100 196 214 135 135 198 205 190 210 -8 5
-83 -63 -215 -195 -120 -120 -205 -198 -209 -191 -4 6 7 28 23 49 17 20 38 58
46 83 12 36 48 77 180 209 91 91 165 168 165 172 0 25 -41 -7 -165 -132 -77
-77 -142 -140 -145 -140 -3 0 -4 35 -2 78 l3 79 115 114 c108 107 131 139 101
139 -7 0 -64 -51 -126 -114 l-114 -115 -79 -3 c-43 -2 -78 -1 -78 2 0 3 63 68
140 145 125 124 157 165 132 165 -4 0 -81 -74 -172 -165 -133 -133 -174 -168
-210 -180 -25 -9 -63 -29 -84 -45 -21 -16 -43 -27 -49 -23 -5 3 82 97 194 209
136 136 200 207 193 214 -6 6 -76 -57 -209 -190z m175 -253 c0 -29 -7 -78 -16
-107 -15 -51 -62 -131 -84 -145 -5 -3 -33 1 -62 10 -28 8 -67 15 -85 15 -29 0
-33 3 -33 26 0 14 -7 54 -16 88 l-16 61 38 33 c46 40 140 71 217 71 l57 1 0
-53z m-370 -104 c23 -62 26 -149 6 -197 -14 -34 -81 -96 -103 -96 -7 0 -13 11
-13 25 0 36 -35 132 -65 177 l-25 38 22 31 c13 17 48 49 78 71 63 45 65 44
100 -49z m-185 -239 c25 -96 4 -164 -70 -220 -39 -30 -55 -24 -55 22 0 12 -18
58 -40 102 -22 44 -40 83 -40 87 0 16 46 69 93 106 l50 40 23 -39 c13 -22 31
-66 39 -98z m398 26 c93 -35 95 -38 49 -98 -22 -29 -54 -64 -72 -77 l-32 -24
-37 24 c-20 13 -56 31 -81 41 -58 22 -57 21 -28 43 13 11 35 40 49 65 22 42
27 46 61 46 21 0 61 -9 91 -20z m-624 -150 c61 -115 49 -222 -32 -281 -45 -33
-57 -36 -57 -14 0 25 -40 122 -66 160 -15 23 -22 44 -19 56 9 26 114 139 130
139 7 0 27 -27 44 -60z m459 -61 c41 -20 60 -34 55 -42 -21 -36 -80 -99 -109
-117 l-33 -21 -88 43 -88 43 32 28 c17 15 40 46 50 68 l18 40 50 -6 c27 -4 78
-20 113 -36z m-679 -98 c88 -124 81 -251 -18 -318 -43 -29 -51 -29 -51 1 0 14
-19 61 -42 106 -41 81 -41 81 -25 116 17 36 94 124 108 124 4 0 17 -13 28 -29z
m475 -97 c33 -17 62 -36 64 -42 5 -16 -69 -94 -115 -119 l-39 -22 -44 28 c-25
15 -63 34 -85 42 -22 7 -42 14 -43 15 -2 2 14 19 36 38 22 20 45 50 53 67 12
30 14 31 63 27 30 -2 76 -17 110 -34z m-675 -95 c36 -48 71 -131 71 -168 0
-52 -37 -119 -81 -148 -22 -14 -41 -24 -43 -22 -2 2 -11 27 -20 56 -10 28 -31
70 -47 93 l-30 41 21 46 c20 46 85 133 99 133 4 0 17 -14 30 -31z m466 -95
c30 -15 62 -35 70 -44 14 -16 12 -21 -30 -62 -25 -25 -63 -53 -85 -63 l-39
-18 -49 32 c-27 17 -66 37 -87 44 l-38 13 31 23 c18 12 44 43 59 68 26 45 27
45 70 39 24 -3 68 -18 98 -32z m-630 -149 c52 -88 50 -166 -6 -230 -42 -47
-63 -52 -103 -21 -88 67 -86 182 5 298 l32 39 24 -23 c14 -13 35 -41 48 -63z
m400 -29 c19 -8 55 -29 81 -47 l46 -31 -37 -38 c-37 -38 -110 -80 -138 -80 -9
0 -37 13 -63 30 -26 16 -62 35 -81 41 l-34 11 41 35 c22 19 47 48 56 64 12 25
20 29 55 29 22 0 55 -6 74 -14z m-164 -212 c26 -15 58 -37 70 -50 l22 -24 -22
-24 c-29 -31 -107 -73 -153 -81 -45 -8 -98 8 -138 42 -38 31 -38 46 1 73 16
12 42 40 55 62 25 40 27 40 71 34 25 -3 67 -18 94 -32z"/>
</g>
</svg>
